<?xml version="1.0" encoding="UTF-8" standalone="no"?>
<!-- Created with Inkscape (http://www.inkscape.org/) -->

<svg
   version="1.1"
   id="svg2"
   xml:space="preserve"
   width="1122.52"
   height="793.69995"
   viewBox="0 0 1122.52 793.69996"
   sodipodi:docname="bab5d8b262058aa4abe29e704abfdddb.eps"
   xmlns:inkscape="http://www.inkscape.org/namespaces/inkscape"
   xmlns:sodipodi="http://sodipodi.sourceforge.net/DTD/sodipodi-0.dtd"
   xmlns="http://www.w3.org/2000/svg"
   xmlns:svg="http://www.w3.org/2000/svg"><defs
     id="defs6" /><sodipodi:namedview
     id="namedview4"
     pagecolor="#ffffff"
     bordercolor="#666666"
     borderopacity="1.0"
     inkscape:pageshadow="2"
     inkscape:pageopacity="0.0"
     inkscape:pagecheckerboard="0" /><g
     id="g8"
     inkscape:groupmode="layer"
     inkscape:label="ink_ext_XXXXXX"
     transform="matrix(1.3333333,0,0,-1.3333333,0,793.70154)"><g
       id="g10"
       transform="scale(0.1)"><path
         d="M 0,0.0117188 H 8418.9 V 5952.7617 H 0 Z"
         style="fill:#ffffff;fill-opacity:1;fill-rule:nonzero;stroke:none"
         id="path12" /><path
         d="m 1469.84,554.531 c -108.71,0 -217.29,7.797 -325.02,24.258 -130.49,19.93 -269.269,58.731 -350.05,163.141 -126.254,163.172 -52.735,403.12 59.367,576.33 109.664,169.43 251.753,317.81 416.293,434.69 172.93,122.85 369.75,210.91 534.19,344.91 164.44,133.99 298.25,333.45 275.55,544.34 -22.19,206.16 -190.86,372.31 -381.01,454.99 -190.15,82.68 -401.48,98.16 -607.77,119.07 -206.288,20.91 -418.488,50.5 -596.742,156.42 -29.183,17.35 -57.07,36.73 -83.511,57.91 -177.883,142.46 -290.336,365.99 -293.332,594.39 -5.77,439.47 408.375,798.43 839.394,798.43 26.586,0 53.181,-1.37 79.811,-4.16 415.41,-43.61 722.62,-486.8 1137.43,-486.8 5.21,0 10.42,0.07 15.66,0.21 324.4,8.74 567.17,286.32 779.51,531.73 257.9,298.04 540.93,586.54 894.23,761.25 194.79,96.32 415.29,153.24 631.87,153.24 176.26,0 349.9,-37.67 505.08,-122.47 154.61,-84.49 290.25,-222.31 326.1,-394.8 36.5,-175.52 -33.5,-352.97 -72.34,-527.98 -38.84,-175.01 -33.88,-387.16 107.33,-497.59 51.82,-40.53 116.16,-61.78 180.52,-75.34 70.43,-14.85 140.96,-21.33 211.4,-21.33 321.57,0 642.74,134.79 959.15,223.41 148.47,41.59 310.99,68.92 468.93,68.92 252.33,0 493.02,-69.75 646.35,-262.57 176.48,-221.93 171.67,-552.87 36.31,-802.02 -135.36,-249.15 -380.32,-423.7 -642.13,-532.54 -261.81,-108.85 -543.36,-159.5 -820.95,-217.29 -115.48,-24.04 -257.83,-81.06 -257.32,-199.02 0.21,-50.21 28.86,-95.36 57.34,-136.71 127.46,-185.03 274.03,-361.19 355.13,-570.73 81.1,-209.54 83.55,-467.88 -62.55,-638.58 -111.93,-130.779 -287.27,-186.068 -455.27,-223.592 -133.03,-29.707 -273.11,-50.957 -410.36,-50.957 -172.07,-0.011 -339.7,33.368 -483.74,125.297 -181.64,115.952 -297.83,307.482 -428.61,478.752 -130.77,171.28 -300.6,337.29 -514.91,359.91 -19.16,2.02 -38.01,2.99 -56.54,2.99 -316.96,0 -544.44,-284.67 -755.17,-481.79 C 3119.34,1030.17 2708.15,842.48 2364.21,718.59 2077.81,615.43 1773.52,554.531 1469.84,554.531"
         style="fill:#ddf4fc;fill-opacity:1;fill-rule:nonzero;stroke:none"
         id="path14" /><path
         d="M 7294.25,1337 H 286.504 v 281.84 H 7294.25 V 1337"
         style="fill:#4a60b0;fill-opacity:1;fill-rule:nonzero;stroke:none"
         id="path16" /><path
         d="M 1223.85,1337 H 1001.8 L 820.691,743.148 H 971.156 L 1223.85,1337"
         style="fill:#243e71;fill-opacity:1;fill-rule:nonzero;stroke:none"
         id="path18" /><path
         d="M 5978.96,1337 H 5756.9 l 252.7,-593.852 h 150.46 L 5978.96,1337"
         style="fill:#243e71;fill-opacity:1;fill-rule:nonzero;stroke:none"
         id="path20" /><path
         d="M 5823.13,2043.04 H 2514.85 c -65.6,0 -114.14,61.04 -99.36,124.95 l 492.57,2130.53 c 10.69,46.26 51.89,79.02 99.37,79.02 h 3308.28 c 65.61,0 114.14,-61.04 99.37,-124.96 L 5922.5,2122.05 c -10.69,-46.25 -51.88,-79.01 -99.37,-79.01"
         style="fill:#4a60b0;fill-opacity:1;fill-rule:nonzero;stroke:none"
         id="path22" /><path
         d="M 5677.21,2475.78 H 2836.66 c -65.61,0 -114.15,61.03 -99.37,124.95 l 349.09,1509.9 c 10.7,46.25 51.89,79 99.36,79 h 2840.55 c 65.6,0 114.14,-61.04 99.36,-124.95 L 5776.57,2554.79 c -10.7,-46.26 -51.89,-79.01 -99.36,-79.01"
         style="fill:#f1f6fc;fill-opacity:1;fill-rule:nonzero;stroke:none"
         id="path24" /><path
         d="m 4966.81,1618.84 -146.21,424.2 h -101.5 l 119.31,-346.13 h -657.91 -46.89 l 26.91,-78.07 h 806.29"
         style="fill:#243e71;fill-opacity:1;fill-rule:nonzero;stroke:none"
         id="path26" /><path
         d="m 4796.78,1729.88 h -595.26 l -107.94,313.16 h 595.25 l 107.95,-313.16"
         style="fill:#243e71;fill-opacity:1;fill-rule:nonzero;stroke:none"
         id="path28" /><path
         d="m 2043.14,3320.79 c 40.39,-31.22 83.91,-58.32 129.78,-80.73 -1.59,30.63 -2.55,61.29 -2.86,91.95 -40.59,-10.07 -83.48,-12.69 -126.92,-11.22"
         style="fill:#de5d4f;fill-opacity:1;fill-rule:nonzero;stroke:none"
         id="path30" /><path
         d="m 2318.3,3503.59 c -14.91,132.05 -38.8,263.07 -71.2,391.95 -14.09,-14 -30.72,-24.95 -50.2,-31.21 -26.72,-8.58 -57.11,-7.86 -80.21,-23.8 -48.46,-33.41 -38.7,-120.27 -91.65,-145.99 -0.39,27.56 -0.97,55.98 -12.07,81.21 -11.09,25.23 -35.56,46.69 -63.1,45.47 -21.65,-0.96 -40.68,-15.52 -53.45,-33.03 -26.37,-36.15 -30.38,-87.3 -9.98,-127.12 20.4,-39.82 64.26,-66.44 108.99,-66.17 -14.19,-114.95 -130.84,-185.59 -237.72,-230.22 -7.23,-3.01 -15.28,-5.95 -22.76,-4.63 1.16,-36.26 0.75,-72.56 -1.26,-108.78 119.18,22.45 217.54,6.25 333.02,-31.08 37.74,-12.2 75.38,-25.77 110.37,-42.97 -1.69,20.93 -3.07,41.88 -4.16,62.84 -45.87,22.41 -89.39,49.51 -129.78,80.73 43.44,-1.47 86.33,1.15 126.92,11.22 30.14,7.48 59.01,18.98 85.82,36.09 28.4,18.11 54.27,43.76 62.06,76.52 4.57,19.22 2.58,39.33 0.36,58.97"
         style="fill:#f6896a;fill-opacity:1;fill-rule:nonzero;stroke:none"
         id="path32" /><path
         d="m 3942.7,2464.83 c -4.86,-3.89 -9.05,-8.7 -13.34,-13.26 -16.43,-17.5 -35.66,-32.34 -56.72,-43.84 -8.88,-4.84 -18.85,-11.5 -28.02,-15.23 -2.69,-1.09 -31.88,-2.46 -28.64,1 24.2,25.88 51.82,49.3 77.62,73.65 24.51,23.14 50.84,58.81 32.03,86.78 -58.28,-30.41 -116.56,-60.83 -174.84,-91.24 -16.66,-8.69 -34.12,-17.6 -52.91,-17.8 -18.8,-0.21 -39.16,11.29 -42.36,29.81 -3.39,19.6 12.4,36.53 23.28,53.18 16.58,25.36 23.19,57.06 18.14,86.93 -84.19,-28.04 -145.96,-99.93 -194.38,-174.3 -33.31,-51.15 -62.95,-105.3 -98.41,-154.75 5.87,-0.69 11.76,-2.58 17.28,-4.64 37.84,-14.07 78.62,-31.27 108.03,-57.06 33.72,-29.58 53.24,-68.22 46.55,-108.57 8.4,6.44 16.93,12.71 25.7,18.65 56.21,38.07 124.98,39.37 185.58,72.01 27.96,15.06 56.77,40.5 61.86,69.38 11.51,7.72 22.35,16.37 30.89,27.21 9.85,12.5 16.29,28.32 16.09,44 -0.1,8.01 33.06,29.67 38.71,38.07 14.49,21.56 27.37,46.61 27.15,73.2 -0.05,5.15 -1.69,11.58 -6.75,12.46 -2.23,0.39 -4.47,-0.5 -6.47,-1.58 -2.15,-1.16 -4.17,-2.54 -6.07,-4.06"
         style="fill:#f6896a;fill-opacity:1;fill-rule:nonzero;stroke:none"
         id="path34" /><path
         d="m 2243.83,3136.34 c -20.4,15.87 -42.98,29.19 -66.75,40.88 -34.99,17.2 -72.63,30.77 -110.37,42.97 -115.48,37.33 -213.84,53.53 -333.02,31.08 -1.5,-0.29 -2.96,-0.5 -4.46,-0.8 -9.2,-28.03 -18.71,-55.99 -28.02,-83.99 8.22,0.3 16.46,0.3 24.72,0.01 31.11,-1.12 62.42,-5.93 92.94,-11.55 131.45,-24.21 256.35,-67.56 374.73,-122.48 63.63,-29.53 125.33,-62.43 185.19,-97.47 -29.93,75.35 -67.53,148.91 -134.96,201.35"
         style="fill:#ffffff;fill-opacity:1;fill-rule:nonzero;stroke:none"
         id="path36" /><path
         d="m 3277.65,903.551 c -147.8,47.449 -295.07,82.16 -446.92,94.429 -38.87,3.14 -78.03,4.89 -117.59,4.92 -235.8,0.16 -471.59,0.34 -707.38,0.5 -149.85,0.11 -299.86,0.3 -449.33,9.57 -18.29,-87.341 -11.46,-180.208 4.16,-268.88 l 0.19,-0.942 h 2102.88 c -124,63.942 -253.19,117.75 -386.01,160.403"
         style="fill:#612144;fill-opacity:1;fill-rule:nonzero;stroke:none"
         id="path38" /><path
         d="m 2805.09,1419.56 -0.62,0.11 c -53.74,12.01 -100.13,43.86 -143.35,72.72 -79.82,53.28 -148.2,119.62 -200.02,194.74 -85.4,123.82 -124.67,267.46 -197.33,397.31 -22.73,40.61 -48.71,79.86 -69,121.44 -26.48,54.23 -42.99,111.89 -52.97,170.18 -19.38,113.24 -14.03,230.64 25.62,339.8 13.42,36.97 31.6,74.01 63.89,100.69 65.5,54.12 171.83,48.5 250.96,8.38 -4.26,16.81 -9.82,33.42 -20.24,47.93 -14.78,20.59 -38.04,35.28 -61.01,49.04 -7.37,4.4 -14.8,8.74 -22.23,13.09 -59.86,35.04 -121.56,67.94 -185.19,97.47 -118.38,54.92 -243.28,98.27 -374.73,122.48 -30.52,5.62 -61.83,10.43 -92.94,11.55 -8.26,0.29 -16.5,0.29 -24.72,-0.01 -16.6,-0.62 -33.08,-2.42 -49.24,-6.23 -86.84,-20.47 -146,-88.62 -196.87,-153.3 -49.64,-63.13 -98.93,-129.13 -116.67,-204.09 -10.18,-43 -9.53,-87.35 -7.89,-131.23 9.09,-243.39 47.42,-485.95 114.18,-722.41 22.51,-79.74 48.25,-158.87 65.45,-239.6 48.99,-230.14 27.84,-462.93 33.24,-695.9 4.34,-0.29 8.68,-0.49 13.02,-0.75 149.47,-9.27 299.48,-9.46 449.33,-9.57 235.79,-0.16 471.58,-0.34 707.38,-0.5 39.56,-0.03 78.72,-1.78 117.59,-4.92 -0.29,140.79 -8.85,281.56 -25.64,421.58"
         style="fill:#233d6f;fill-opacity:1;fill-rule:nonzero;stroke:none"
         id="path40" /><path
         d="m 2061.12,4273.37 c -158.49,-28 -304.41,-123.39 -385.58,-263.67 -6.95,-12 -13.79,-24.68 -25.06,-32.78 -13.31,-9.57 -30.51,-11.15 -46.32,-15.52 -73.56,-20.34 -114.74,-104.87 -108.81,-180.95 5.91,-76.09 47.99,-144.34 93.56,-205.56 45.57,-61.22 96.53,-120.09 125.23,-190.8 3.66,-9.02 7.8,-19.12 16.75,-22.9 1.33,-0.56 2.69,-0.9 4.06,-1.14 7.48,-1.32 15.53,1.62 22.76,4.63 106.88,44.63 223.53,115.27 237.72,230.22 -44.73,-0.27 -88.59,26.35 -108.99,66.17 -20.4,39.82 -16.39,90.97 9.98,127.12 12.77,17.51 31.8,32.07 53.45,33.03 27.54,1.22 52.01,-20.24 63.1,-45.47 11.1,-25.23 11.68,-53.65 12.07,-81.21 52.95,25.72 43.19,112.58 91.65,145.99 23.1,15.94 53.49,15.22 80.21,23.8 19.48,6.26 36.11,17.21 50.2,31.21 32.86,32.64 51.6,82.11 58.44,129.32 23.31,161 -88.09,276.12 -244.42,248.51"
         style="fill:#612144;fill-opacity:1;fill-rule:nonzero;stroke:none"
         id="path42" /><path
         d="m 3529.46,2224.06 c -29.41,25.79 -70.19,42.99 -108.03,57.06 -5.52,2.06 -11.41,3.95 -17.28,4.64 -3.7,0.43 -7.4,0.49 -10.99,-0.54 -7.72,-2.2 -13.13,-8.08 -18.21,-13.59 -69.98,-76.09 -160,-135.92 -249.07,-194.94 -82.31,-54.56 -166.4,-109.96 -263.99,-139.76 -11.1,-3.39 -23.33,-6.44 -34.4,-2.98 -12.9,4.03 -20.31,15.59 -26.11,26.41 -140.99,262.97 3.34,646.23 -289.83,847.36 -9.18,6.31 -19.03,12.01 -29.28,17.21 -79.13,40.12 -185.46,45.74 -250.96,-8.38 -32.29,-26.68 -50.47,-63.72 -63.89,-100.69 -39.65,-109.16 -45,-226.56 -25.62,-339.8 9.98,-58.29 26.49,-115.95 52.97,-170.18 20.29,-41.58 46.27,-80.83 69,-121.44 72.66,-129.85 111.93,-273.49 197.33,-397.31 51.82,-75.12 120.2,-141.46 200.02,-194.74 43.22,-28.86 89.61,-60.71 143.35,-72.72 l 0.62,-0.11 c 57.93,-12.71 104.23,9.35 152.39,35.42 107.53,58.19 188.56,146.23 267.49,230.75 105.17,112.61 197.84,233.52 301.34,347.25 15.36,16.88 30.89,34.01 40.48,53.85 4.64,9.58 7.64,19.17 9.22,28.66 6.69,40.35 -12.83,78.99 -46.55,108.57"
         style="fill:#ffffff;fill-opacity:1;fill-rule:nonzero;stroke:none"
         id="path44" /><path
         d="m 3896.55,2346.19 -18.91,-13.21 c -6.62,-3.9 -13.49,-7.36 -20.45,-10.58 -13.94,-6.46 -28.29,-11.91 -42.65,-17.15 -28.67,-10.56 -57.83,-19.88 -84.04,-35.02 l -2.75,4.81 c 23.43,13.62 49.02,22.4 74.22,31.03 12.62,4.33 25.22,8.61 37.59,13.43 l 36.89,15.06 0.92,-0.38 -0.25,-0.84 c -10.9,-7.98 -23.24,-13.67 -35.7,-18.57 -12.46,-4.96 -25.1,-9.38 -37.68,-13.81 -25.14,-8.83 -50.23,-17.8 -73.24,-30.73 -1.32,-0.77 -3.01,-0.33 -3.79,0.99 -0.77,1.33 -0.32,3.01 1,3.79 l 0.04,0.03 c 27.06,15.13 56.42,24.77 85.33,34.37 14.45,4.87 28.81,9.93 42.76,15.98 7,2.98 13.79,6.37 20.56,9.82 l 19.3,12.09 0.08,0.05 0.97,-0.22 -0.2,-0.94"
         style="fill:#de5d4f;fill-opacity:1;fill-rule:nonzero;stroke:none"
         id="path46" /><path
         d="m 3849.54,2274.95 c -10.86,-9.26 -23.07,-16.61 -35.51,-23.31 -12.4,-6.84 -25,-13.3 -37.79,-19.39 -25.55,-12.23 -51.98,-22.61 -78.92,-31.34 l -1.68,5.09 c 23.61,7.68 46.8,16.6 69.6,26.47 22.77,9.94 44.96,21.2 66.81,33.12 l 0.95,-0.28 -0.24,-0.93 c -21.08,-13.36 -43.2,-25.07 -65.82,-35.67 -22.59,-10.7 -45.89,-19.9 -69.62,-27.8 -1.4,-0.46 -2.92,0.3 -3.38,1.69 -0.47,1.41 0.3,2.93 1.7,3.4 26.65,8.96 52.74,19.47 78.27,31.21 12.74,5.93 25.3,12.24 37.66,18.92 l 18.48,10.17 c 6.04,3.55 12.21,6.86 18.7,9.82 l 0.96,-0.31 -0.17,-0.86"
         style="fill:#de5d4f;fill-opacity:1;fill-rule:nonzero;stroke:none"
         id="path48" /><path
         d="m 3817.7,2394 c -3.6,-3.97 -8.19,-6.1 -12.72,-8.28 -4.55,-2.17 -9.12,-4.26 -13.73,-6.28 -9.21,-4.08 -18.65,-7.66 -28.26,-10.66 -19.15,-6.2 -38.84,-10.93 -58.87,-12.8 l -0.77,0.64 0.53,0.75 c 19.39,4.96 38.6,10.06 57.38,16.56 9.36,3.34 18.65,6.85 27.87,10.53 4.6,1.88 9.16,3.85 13.69,5.88 4.52,2.08 8.92,4.34 14.23,4.91 l 0.84,-0.65 -0.19,-0.6"
         style="fill:#de5d4f;fill-opacity:1;fill-rule:nonzero;stroke:none"
         id="path50" /><path
         d="M 0,743.148 V 0.0117188 H 8418.9 V 743.148 H 0"
         style="fill:#4c8ccb;fill-opacity:1;fill-rule:nonzero;stroke:none"
         id="path52" /><path
         d="m 3521.59,3181.56 986,22.08 9.35,-10.16 -156.12,-644.08 -973.87,3.11 -9.12,10.16 143.76,618.89"
         style="fill:#6e6f71;fill-opacity:1;fill-rule:nonzero;stroke:none"
         id="path54" /><path
         d="m 3512.74,3191.74 994.85,11.9 -156.39,-644.09 -973.37,3.12 134.91,629.07"
         style="fill:#fdfefc;fill-opacity:1;fill-rule:nonzero;stroke:none"
         id="path56" /><path
         d="m 3633.81,3122.4 -111.59,-2.11 c -4.25,0.15 -7.43,3.48 -7.12,7.44 0.31,3.96 3.99,7.05 8.23,6.9 l 111.5,2.11 c 4.24,-0.14 7.45,-3.47 7.16,-7.43 -0.28,-3.96 -3.94,-7.05 -8.18,-6.91"
         style="fill:#a5a6a8;fill-opacity:1;fill-rule:nonzero;stroke:none"
         id="path58" /><path
         d="m 3780.18,3084.98 -260.93,-2.95 c -4.25,0.15 -7.44,3.48 -7.14,7.44 0.31,3.96 4.01,7.05 8.25,6.91 l 260.72,2.94 c 4.25,-0.14 7.48,-3.47 7.24,-7.43 -0.25,-3.96 -3.9,-7.05 -8.14,-6.91"
         style="fill:#a5a6a8;fill-opacity:1;fill-rule:nonzero;stroke:none"
         id="path60" /><path
         d="m 4279.31,2619.6 -139.72,0.06 17.43,-17.6 142.72,-0.09 78.03,344.98 -20.1,17.54 -78.36,-344.89"
         style="fill:#244662;fill-opacity:1;fill-rule:nonzero;stroke:none"
         id="path62" /><path
         d="m 4087.73,2615.13 -139.83,0.09 17.27,-17.57 142.83,-0.11 129.16,530.23 -19.78,17.49 -129.65,-530.13"
         style="fill:#244662;fill-opacity:1;fill-rule:nonzero;stroke:none"
         id="path64" /><path
         d="m 3896.68,2612.25 -134.05,-0.12 16.27,-17.5 136.93,0.09 103.94,416.4 -18.78,17.44 -104.31,-416.31"
         style="fill:#244662;fill-opacity:1;fill-rule:nonzero;stroke:none"
         id="path66" /><path
         d="m 3718.53,2613.34 -134.13,-0.1 16.12,-17.47 137,0.07 52.69,193.15 -18.83,17.46 -52.85,-193.11"
         style="fill:#244662;fill-opacity:1;fill-rule:nonzero;stroke:none"
         id="path68" /><path
         d="m 3533.67,2615.86 -133.19,5.27 15.96,-17.44 136.06,-5.31 66.67,235.71 -18.63,17.42 -66.87,-235.65"
         style="fill:#244662;fill-opacity:1;fill-rule:nonzero;stroke:none"
         id="path70" /><path
         d="m 4277.12,2623.68 -139.68,0.06 17.42,-17.59 142.68,-0.09 78.07,344.97 -20.1,17.54 -78.39,-344.89"
         style="fill:#3d6ebd;fill-opacity:1;fill-rule:nonzero;stroke:none"
         id="path72" /><path
         d="m 4219.26,2962.69 -84.7,-338.94 142.56,-0.07 78.39,344.89 -136.25,-5.88"
         style="fill:#4e7cc8;fill-opacity:1;fill-rule:nonzero;stroke:none"
         id="path74" /><path
         d="m 4137.44,2623.74 17.42,-17.59 142.68,-0.09 -20.42,17.62 -139.68,0.06"
         style="fill:#3162a7;fill-opacity:1;fill-rule:nonzero;stroke:none"
         id="path76" /><path
         d="m 4085.59,2619.22 -139.81,0.07 17.27,-17.56 142.8,-0.11 129.21,530.22 -19.78,17.48 -129.69,-530.1"
         style="fill:#c81b4b;fill-opacity:1;fill-rule:nonzero;stroke:none"
         id="path78" /><path
         d="m 4080.22,3143.21 -137.32,-523.91 142.69,-0.08 129.69,530.1 -135.06,-6.11"
         style="fill:#e82860;fill-opacity:1;fill-rule:nonzero;stroke:none"
         id="path80" /><path
         d="m 3945.78,2619.29 17.27,-17.56 142.8,-0.11 -20.26,17.6 -139.81,0.07"
         style="fill:#a41740;fill-opacity:1;fill-rule:nonzero;stroke:none"
         id="path82" /><path
         d="m 3894.58,2616.32 -134.03,-0.11 16.27,-17.51 136.9,0.1 103.98,416.38 -18.78,17.44 -104.34,-416.3"
         style="fill:#52b7c1;fill-opacity:1;fill-rule:nonzero;stroke:none"
         id="path84" /><path
         d="m 3868.54,3026.5 -110.75,-410.3 136.79,0.12 104.34,416.3 -130.38,-6.12"
         style="fill:#6fd0e1;fill-opacity:1;fill-rule:nonzero;stroke:none"
         id="path86" /><path
         d="m 3760.55,2616.21 16.27,-17.51 136.9,0.1 -19.14,17.52 -134.03,-0.11"
         style="fill:#3f99a1;fill-opacity:1;fill-rule:nonzero;stroke:none"
         id="path88" /><path
         d="m 3716.46,2617.4 -134.1,-0.1 16.11,-17.48 136.97,0.09 52.71,193.14 -18.82,17.46 -52.87,-193.11"
         style="fill:#414aa7;fill-opacity:1;fill-rule:nonzero;stroke:none"
         id="path90" /><path
         d="m 3637.24,2804.72 -57.65,-187.42 136.87,0.1 52.87,193.11 -132.09,-5.79"
         style="fill:#545ab2;fill-opacity:1;fill-rule:nonzero;stroke:none"
         id="path92" /><path
         d="m 3582.36,2617.3 16.11,-17.48 136.97,0.09 -18.98,17.49 -134.1,-0.1"
         style="fill:#2b3a8f;fill-opacity:1;fill-rule:nonzero;stroke:none"
         id="path94" /><path
         d="m 3531.64,2619.91 -133.16,5.27 15.95,-17.44 136.04,-5.29 66.68,235.69 -18.62,17.42 -66.89,-235.65"
         style="fill:#e27f74;fill-opacity:1;fill-rule:nonzero;stroke:none"
         id="path96" /><path
         d="m 3467.6,2855.09 -71.89,-229.91 135.93,-5.27 66.89,235.65 -130.93,-0.47"
         style="fill:#f9a899;fill-opacity:1;fill-rule:nonzero;stroke:none"
         id="path98" /><path
         d="m 3398.48,2625.18 15.95,-17.44 136.04,-5.29 -18.83,17.46 -133.16,5.27"
         style="fill:#b35954;fill-opacity:1;fill-rule:nonzero;stroke:none"
         id="path100" /><path
         d="m 4625.44,2754.56 133.88,3.21 16.47,70.98 -133.58,-3.82 -16.77,-70.37"
         style="fill:#244662;fill-opacity:1;fill-rule:nonzero;stroke:none"
         id="path102" /><path
         d="m 4600.59,2650.58 134.32,2.3 16.51,70.91 -134.03,-2.91 -16.8,-70.3"
         style="fill:#244662;fill-opacity:1;fill-rule:nonzero;stroke:none"
         id="path104" /><path
         d="m 4674.98,2962.86 132.98,5.03 16.4,71.14 -132.69,-5.65 -16.69,-70.52"
         style="fill:#244662;fill-opacity:1;fill-rule:nonzero;stroke:none"
         id="path106" /><path
         d="m 4650.23,2858.65 133.44,4.12 16.43,71.06 -133.13,-4.73 -16.74,-70.45"
         style="fill:#244662;fill-opacity:1;fill-rule:nonzero;stroke:none"
         id="path108" /><path
         d="m 4848.54,3144.35 -132.23,-6.56 -16.65,-70.6 132.54,5.94 16.34,71.22"
         style="fill:#244662;fill-opacity:1;fill-rule:nonzero;stroke:none"
         id="path110" /><path
         d="m 4626.6,2762.08 133.85,3.28 16.47,70.97 -133.54,-3.88 -16.78,-70.37"
         style="fill:#e82860;fill-opacity:1;fill-rule:nonzero;stroke:none"
         id="path112" /><path
         d="m 4601.75,2658.1 134.29,2.37 16.52,70.9 -134,-2.98 -16.81,-70.29"
         style="fill:#4e7cc8;fill-opacity:1;fill-rule:nonzero;stroke:none"
         id="path114" /><path
         d="m 4676.14,2970.39 132.95,5.09 16.39,71.15 -132.65,-5.71 -16.69,-70.53"
         style="fill:#545ab2;fill-opacity:1;fill-rule:nonzero;stroke:none"
         id="path116" /><path
         d="m 4651.4,2866.18 133.4,4.18 16.43,71.06 -133.1,-4.79 -16.73,-70.45"
         style="fill:#6fd0e1;fill-opacity:1;fill-rule:nonzero;stroke:none"
         id="path118" /><path
         d="m 4849.67,3151.95 -132.2,-6.62 -16.65,-70.61 132.5,6.01 16.35,71.22"
         style="fill:#f9a899;fill-opacity:1;fill-rule:nonzero;stroke:none"
         id="path120" /><path
         d="m 5128.14,3125.91 -247.91,-10.01 c -2.03,0.01 -3.41,1.76 -3.1,3.92 0.32,2.16 2.22,3.91 4.25,3.9 l 247.85,10.13 c 2.02,0 3.43,-1.78 3.12,-3.97 -0.29,-2.19 -2.18,-3.97 -4.21,-3.97"
         style="fill:#a5a6a8;fill-opacity:1;fill-rule:nonzero;stroke:none"
         id="path122" /><path
         d="m 5196.76,3107.84 -319.58,-12.78 c -2.03,0.01 -3.42,1.77 -3.11,3.93 0.32,2.15 2.22,3.9 4.25,3.89 l 319.5,12.94 c 2.03,0 3.43,-1.8 3.14,-4 -0.3,-2.2 -2.18,-3.98 -4.2,-3.98"
         style="fill:#a5a6a8;fill-opacity:1;fill-rule:nonzero;stroke:none"
         id="path124" /><path
         d="m 5101.93,3016.94 -248.77,-8.27 c -2.03,0.02 -3.42,1.79 -3.1,3.94 0.31,2.16 2.23,3.9 4.26,3.88 l 248.7,8.39 c 2.04,-0.02 3.44,-1.81 3.14,-4 -0.3,-2.19 -2.19,-3.95 -4.23,-3.94"
         style="fill:#a5a6a8;fill-opacity:1;fill-rule:nonzero;stroke:none"
         id="path126" /><path
         d="m 5170.78,2998.39 -320.67,-10.54 c -2.04,0.02 -3.43,1.78 -3.12,3.94 0.31,2.16 2.23,3.89 4.26,3.87 l 320.61,10.7 c 2.03,-0.02 3.44,-1.82 3.15,-4.02 -0.29,-2.2 -2.19,-3.97 -4.23,-3.95"
         style="fill:#a5a6a8;fill-opacity:1;fill-rule:nonzero;stroke:none"
         id="path128" /><path
         d="m 5075.64,2908.13 -249.61,-6.52 c -2.05,0.03 -3.44,1.8 -3.13,3.95 0.32,2.16 2.24,3.88 4.28,3.85 l 249.56,6.65 c 2.04,-0.03 3.46,-1.83 3.15,-4.01 -0.3,-2.2 -2.19,-3.95 -4.25,-3.92"
         style="fill:#a5a6a8;fill-opacity:1;fill-rule:nonzero;stroke:none"
         id="path130" /><path
         d="m 5144.74,2889.09 -321.78,-8.3 c -2.05,0.04 -3.45,1.81 -3.13,3.97 0.32,2.15 2.23,3.87 4.28,3.84 l 321.7,8.46 c 2.04,-0.03 3.46,-1.85 3.16,-4.05 -0.29,-2.19 -2.18,-3.95 -4.23,-3.92"
         style="fill:#a5a6a8;fill-opacity:1;fill-rule:nonzero;stroke:none"
         id="path132" /><path
         d="m 5049.29,2799.48 -250.48,-4.79 c -2.05,0.04 -3.46,1.83 -3.14,3.99 0.32,2.15 2.24,3.86 4.29,3.81 l 250.42,4.92 c 2.05,-0.05 3.47,-1.86 3.16,-4.04 -0.3,-2.19 -2.2,-3.93 -4.25,-3.89"
         style="fill:#a5a6a8;fill-opacity:1;fill-rule:nonzero;stroke:none"
         id="path134" /><path
         d="m 5118.61,2779.96 -322.88,-6.07 c -2.05,0.05 -3.45,1.84 -3.14,3.99 0.32,2.16 2.24,3.86 4.29,3.82 l 322.81,6.22 c 2.05,-0.05 3.47,-1.87 3.17,-4.07 -0.29,-2.2 -2.2,-3.94 -4.25,-3.89"
         style="fill:#a5a6a8;fill-opacity:1;fill-rule:nonzero;stroke:none"
         id="path136" /><path
         d="m 5022.84,2690.99 -251.33,-3.05 c -2.06,0.05 -3.46,1.85 -3.15,4 0.32,2.15 2.25,3.85 4.31,3.79 l 251.27,3.18 c 2.06,-0.06 3.47,-1.88 3.18,-4.07 -0.3,-2.19 -2.22,-3.91 -4.28,-3.85"
         style="fill:#a5a6a8;fill-opacity:1;fill-rule:nonzero;stroke:none"
         id="path138" /><path
         d="m 5092.41,2670.98 -323.98,-3.83 c -2.06,0.06 -3.47,1.87 -3.16,4.02 0.33,2.15 2.25,3.84 4.31,3.78 l 323.91,3.98 c 2.06,-0.06 3.48,-1.89 3.19,-4.09 -0.3,-2.2 -2.21,-3.93 -4.27,-3.86"
         style="fill:#a5a6a8;fill-opacity:1;fill-rule:nonzero;stroke:none"
         id="path140" /><path
         d="m 3382.2,3414.21 h -3.2 l 37.04,183.83 h 3.2 l -37.04,-183.83"
         style="fill:#4a60b0;fill-opacity:1;fill-rule:nonzero;stroke:none"
         id="path142" /><path
         d="m 3486.77,3460.7 h -3.21 l 54.38,270.91 h 3.2 l -54.37,-270.91"
         style="fill:#4a60b0;fill-opacity:1;fill-rule:nonzero;stroke:none"
         id="path144" /><path
         d="m 3588.21,3491.98 h -3.2 l 63.83,319.21 h 3.2 l -63.83,-319.21"
         style="fill:#4a60b0;fill-opacity:1;fill-rule:nonzero;stroke:none"
         id="path146" /><path
         d="m 3707.37,3612.41 h -3.2 l 73.93,371.14 h 3.19 l -73.92,-371.14"
         style="fill:#4a60b0;fill-opacity:1;fill-rule:nonzero;stroke:none"
         id="path148" /><path
         d="m 3765.85,3427.95 h -3.2 l 90.9,458.14 h 3.19 l -90.89,-458.14"
         style="fill:#4a60b0;fill-opacity:1;fill-rule:nonzero;stroke:none"
         id="path150" /><path
         d="m 3833.57,3288.79 h -3.2 l 70.44,356.41 h 3.2 l -70.44,-356.41"
         style="fill:#4a60b0;fill-opacity:1;fill-rule:nonzero;stroke:none"
         id="path152" /><path
         d="m 3922.33,3255.43 h -3.2 l 90.26,458.51 h 3.2 l -90.26,-458.51"
         style="fill:#4a60b0;fill-opacity:1;fill-rule:nonzero;stroke:none"
         id="path154" /><path
         d="m 4042.94,3384.21 h -3.21 l 81.12,413.68 h 3.2 l -81.11,-413.68"
         style="fill:#4a60b0;fill-opacity:1;fill-rule:nonzero;stroke:none"
         id="path156" /><path
         d="m 4163.73,3514.95 h -3.21 l 117.04,599.22 h 3.19 l -117.02,-599.22"
         style="fill:#4a60b0;fill-opacity:1;fill-rule:nonzero;stroke:none"
         id="path158" /><path
         d="m 4301.1,3732.02 h -3.19 l 78.4,402.98 h 3.18 l -78.39,-402.98"
         style="fill:#4a60b0;fill-opacity:1;fill-rule:nonzero;stroke:none"
         id="path160" /><path
         d="m 4398.64,3745.21 h -3.2 l 55.91,288.52 h 3.19 l -55.9,-288.52"
         style="fill:#4a60b0;fill-opacity:1;fill-rule:nonzero;stroke:none"
         id="path162" /><path
         d="m 4448.13,3509.44 h -3.21 l 79.04,409.53 h 3.19 l -79.02,-409.53"
         style="fill:#4a60b0;fill-opacity:1;fill-rule:nonzero;stroke:none"
         id="path164" /><path
         d="m 4533.84,3460.34 h -3.21 l 30.44,158.34 h 3.2 l -30.43,-158.34"
         style="fill:#4a60b0;fill-opacity:1;fill-rule:nonzero;stroke:none"
         id="path166" /><path
         d="m 4602.39,3321.14 h -3.21 l 65.85,343.96 h 3.2 l -65.84,-343.96"
         style="fill:#4a60b0;fill-opacity:1;fill-rule:nonzero;stroke:none"
         id="path168" /><path
         d="m 4701.62,3341.76 h -3.2 l 78.88,413.75 h 3.21 l -78.89,-413.75"
         style="fill:#4a60b0;fill-opacity:1;fill-rule:nonzero;stroke:none"
         id="path170" /><path
         d="m 4797.05,3342.5 h -3.2 l 81.52,429.29 h 3.19 l -81.51,-429.29"
         style="fill:#4a60b0;fill-opacity:1;fill-rule:nonzero;stroke:none"
         id="path172" /><path
         d="m 4893.98,3351.23 h -3.2 l 62.78,331.99 h 3.21 l -62.79,-331.99"
         style="fill:#4a60b0;fill-opacity:1;fill-rule:nonzero;stroke:none"
         id="path174" /><path
         d="m 4984.07,3323.66 h -3.2 l 99.3,527.2 h 3.19 l -99.29,-527.2"
         style="fill:#4a60b0;fill-opacity:1;fill-rule:nonzero;stroke:none"
         id="path176" /><path
         d="m 5124.81,3565.94 h -3.2 l 51.21,272.98 h 3.2 l -51.21,-272.98"
         style="fill:#4a60b0;fill-opacity:1;fill-rule:nonzero;stroke:none"
         id="path178" /><path
         d="m 5223.13,3583.02 h -3.21 l 89.93,481.44 h 3.19 l -89.91,-481.44"
         style="fill:#4a60b0;fill-opacity:1;fill-rule:nonzero;stroke:none"
         id="path180" /><path
         d="m 5297.98,3474.22 h -3.2 l 103.26,555.05 h 3.18 l -103.24,-555.05"
         style="fill:#4a60b0;fill-opacity:1;fill-rule:nonzero;stroke:none"
         id="path182" /><path
         d="m 5370.14,3349.88 h -3.21 l 78.69,424.75 h 3.19 l -78.67,-424.75"
         style="fill:#4a60b0;fill-opacity:1;fill-rule:nonzero;stroke:none"
         id="path184" /><path
         d="m 5454.23,3289.2 h -3.21 l 84.13,456.06 h 3.2 l -84.12,-456.06"
         style="fill:#4a60b0;fill-opacity:1;fill-rule:nonzero;stroke:none"
         id="path186" /><path
         d="m 5615.9,3650.4 h -3.2 l 61.39,334.21 h 3.2 L 5615.9,3650.4"
         style="fill:#4a60b0;fill-opacity:1;fill-rule:nonzero;stroke:none"
         id="path188" /><path
         d="m 3421.14,3452.93 h -65.47 l 13.23,65.57 h 65.44 l -13.2,-65.57"
         style="fill:#6fd0e1;fill-opacity:1;fill-rule:nonzero;stroke:none"
         id="path190" /><path
         d="m 3529.65,3519.33 h -65.43 l 21.34,106.21 h 65.38 l -21.29,-106.21"
         style="fill:#6fd0e1;fill-opacity:1;fill-rule:nonzero;stroke:none"
         id="path192" /><path
         d="m 3646,3625.47 h -65.38 l 22.61,112.95 h 65.32 L 3646,3625.47"
         style="fill:#6fd0e1;fill-opacity:1;fill-rule:nonzero;stroke:none"
         id="path194" /><path
         d="m 3741.1,3625.65 h -65.38 l 33.92,170.06 h 65.29 l -33.83,-170.06"
         style="fill:#6fd0e1;fill-opacity:1;fill-rule:nonzero;stroke:none"
         id="path196" /><path
         d="m 3825.62,3572.43 h -65.41 l 44.58,224.4 h 65.29 l -44.46,-224.4"
         style="fill:#c81b4b;fill-opacity:1;fill-rule:nonzero;stroke:none"
         id="path198" /><path
         d="m 3877.13,3351.53 h -65.52 l 43.71,220.9 h 65.41 l -43.6,-220.9"
         style="fill:#c81b4b;fill-opacity:1;fill-rule:nonzero;stroke:none"
         id="path200" /><path
         d="m 3991.33,3447.77 h -65.47 l 24.9,126.35 h 65.41 l -24.84,-126.35"
         style="fill:#6fd0e1;fill-opacity:1;fill-rule:nonzero;stroke:none"
         id="path202" /><path
         d="m 4086.46,3447.38 h -65.47 l 39.43,200.83 h 65.37 l -39.33,-200.83"
         style="fill:#6fd0e1;fill-opacity:1;fill-rule:nonzero;stroke:none"
         id="path204" /><path
         d="m 4220.83,3648.21 h -65.36 l 50.97,260.63 h 65.23 l -50.84,-260.63"
         style="fill:#6fd0e1;fill-opacity:1;fill-rule:nonzero;stroke:none"
         id="path206" /><path
         d="m 4366.46,3908.55 h -65.23 l 26.21,134.53 h 65.16 l -26.14,-134.53"
         style="fill:#6fd0e1;fill-opacity:1;fill-rule:nonzero;stroke:none"
         id="path208" /><path
         d="m 4442.39,3810.78 h -65.28 l 18.57,95.75 h 65.24 l -18.53,-95.75"
         style="fill:#e82860;fill-opacity:1;fill-rule:nonzero;stroke:none"
         id="path210" /><path
         d="m 4489.83,3564.44 h -65.41 l 47.64,246.5 h 65.28 l -47.51,-246.5"
         style="fill:#e82860;fill-opacity:1;fill-rule:nonzero;stroke:none"
         id="path212" /><path
         d="m 4570.65,3489.96 h -65.44 l 14.17,73.61 h 65.41 l -14.14,-73.61"
         style="fill:#e82860;fill-opacity:1;fill-rule:nonzero;stroke:none"
         id="path214" /><path
         d="m 4640.96,3359.86 h -65.52 l 38.93,203.07 h 65.41 l -38.82,-203.07"
         style="fill:#6fd0e1;fill-opacity:1;fill-rule:nonzero;stroke:none"
         id="path216" /><path
         d="m 4736.29,3360.17 h -65.52 l 46.41,243.04 h 65.39 l -46.28,-243.04"
         style="fill:#6fd0e1;fill-opacity:1;fill-rule:nonzero;stroke:none"
         id="path218" /><path
         d="m 4877.55,3602.68 h -65.39 l 24.21,127.34 h 65.32 l -24.14,-127.34"
         style="fill:#6fd0e1;fill-opacity:1;fill-rule:nonzero;stroke:none"
         id="path220" /><path
         d="m 4940.32,3431.61 h -65.48 l 32.53,171.77 h 65.39 l -32.44,-171.77"
         style="fill:#c81b4b;fill-opacity:1;fill-rule:nonzero;stroke:none"
         id="path222" /><path
         d="m 5035.29,3430.27 h -65.48 l 44.84,237.76 h 65.36 l -44.72,-237.76"
         style="fill:#6fd0e1;fill-opacity:1;fill-rule:nonzero;stroke:none"
         id="path224" /><path
         d="m 5175.27,3669.28 h -65.35 l 12.32,65.57 h 65.32 l -12.29,-65.57"
         style="fill:#6fd0e1;fill-opacity:1;fill-rule:nonzero;stroke:none"
         id="path226" /><path
         d="m 5282.47,3734.47 h -65.32 l 41.63,222.53 h 65.19 l -41.5,-222.53"
         style="fill:#6fd0e1;fill-opacity:1;fill-rule:nonzero;stroke:none"
         id="path228" /><path
         d="m 5363.68,3660.37 h -65.35 l 55.44,297.61 h 65.19 l -55.28,-297.61"
         style="fill:#c81b4b;fill-opacity:1;fill-rule:nonzero;stroke:none"
         id="path230" /><path
         d="m 5420.94,3456.07 h -65.47 l 37.74,203.49 h 65.36 l -37.63,-203.49"
         style="fill:#c81b4b;fill-opacity:1;fill-rule:nonzero;stroke:none"
         id="path232" /><path
         d="m 5516.26,3456.73 h -65.47 l 47.05,254.69 h 65.33 l -46.91,-254.69"
         style="fill:#6fd0e1;fill-opacity:1;fill-rule:nonzero;stroke:none"
         id="path234" /><path
         d="m 5658,3710.47 h -65.33 l 17.78,96.67 h 65.28 L 5658,3710.47"
         style="fill:#6fd0e1;fill-opacity:1;fill-rule:nonzero;stroke:none"
         id="path236" /><path
         d="m 2812.17,233.57 h 6.68 c 9.82,0 19.11,1.039 27.86,2.93 8.74,1.98 16.39,5.23 22.96,9.852 6.49,4.628 11.71,10.679 15.62,18.058 3.9,7.379 5.84,16.578 5.84,27.539 0,10.84 -1.89,20.071 -5.75,27.75 -3.83,7.699 -9.17,13.68 -16.05,17.992 -6.85,4.399 -14.44,7.598 -22.7,9.661 -8.31,2 -17.55,2.968 -27.78,2.968 h -6.68 z m -18.99,133.981 h 31.52 c 24.76,0 45.15,-6.481 61.19,-19.449 16.17,-12.84 24.23,-31.301 24.23,-55.372 0,-24.699 -8.01,-43.582 -24.01,-56.742 -16.02,-13.027 -36.69,-19.566 -62.03,-19.566 h -30.9 v 151.129"
         style="fill:#211d1d;fill-opacity:1;fill-rule:nonzero;stroke:none"
         id="path238" /><path
         d="m 2991.91,273.871 c -1.11,7.27 -3.84,13.008 -8.38,17.168 -4.5,4.223 -10.4,6.383 -17.68,6.383 -3.47,0 -6.75,-0.621 -9.78,-1.762 -3.04,-1.121 -5.72,-2.75 -8.07,-4.879 -2.37,-2.16 -4.3,-4.652 -5.88,-7.551 -1.54,-2.871 -2.57,-5.992 -3.09,-9.359 z M 2938,260.27 c 0.24,-8.379 2.95,-15.7 8.07,-21.891 5.26,-6.098 12.04,-9.141 20.4,-9.141 6.59,0 12,1.461 16.24,4.492 4.25,2.989 8.27,7.571 12.04,13.762 l 15.35,-8.691 c -4.46,-7.969 -10.55,-14.262 -18.28,-18.809 -7.78,-4.562 -16.28,-6.832 -25.55,-6.832 -14.16,0 -25.46,4.672 -33.93,14.031 -8.37,9.528 -12.52,21.289 -12.52,35.309 0,14.809 3.96,26.988 11.92,36.469 7.81,9.371 19.19,14.031 34.11,14.031 14.56,0 25.52,-4.66 32.94,-14.031 7.54,-9.34 11.31,-21.297 11.31,-35.899 v -2.8 H 2938"
         style="fill:#211d1d;fill-opacity:1;fill-rule:nonzero;stroke:none"
         id="path240" /><path
         d="m 3063.6,288.742 c -2.71,5.477 -6.73,8.227 -12.1,8.227 -2.57,0 -4.85,-0.891 -6.86,-2.688 -2.02,-1.781 -3.04,-3.98 -3.04,-6.543 0,-2.398 0.77,-4.457 2.31,-6.117 1.55,-1.641 3.67,-3.191 6.36,-4.652 1.77,-0.828 3.1,-1.5 4.05,-1.91 0.94,-0.5 2.48,-1.207 4.64,-2.118 1.07,-0.519 2.04,-1.011 2.85,-1.203 l 1.79,-0.82 c 6.74,-3.027 12.05,-6.609 15.95,-10.648 3.9,-3.969 5.87,-9.372 5.87,-16.032 0,-8.816 -3.22,-16.25 -9.7,-22.238 -6.31,-5.922 -13.91,-8.84 -22.81,-8.84 -3.65,0 -7.14,0.512 -10.49,1.5 -3.38,1.02 -6.53,2.391 -9.42,4.25 -2.91,1.762 -5.44,3.969 -7.67,6.57 -2.2,2.661 -3.96,5.551 -5.13,8.739 l 15.53,7.043 c 4.46,-8.032 10.16,-12.024 17.18,-12.024 2.85,0 5.45,0.723 7.86,2.274 2.41,1.539 4.22,3.449 5.36,5.84 1.13,2.328 1.37,4.816 0.71,7.617 -0.68,2.722 -2.75,5.332 -6.27,7.73 l -17.79,9.391 c -3.08,1.621 -5.77,3.191 -8.05,4.832 -2.31,1.578 -4.19,3.289 -5.66,5.058 -1.51,1.848 -2.61,3.86 -3.33,6.032 -0.74,2.187 -1.13,4.777 -1.13,7.738 0,7.621 2.71,14.031 8.11,19.289 5.35,5.32 11.95,7.961 19.77,7.961 11.85,0 20.46,-5.469 25.84,-16.43 l -14.73,-7.828"
         style="fill:#211d1d;fill-opacity:1;fill-rule:nonzero;stroke:none"
         id="path242" /><path
         d="m 3125.41,216.422 h -18.2 v 93.828 h 18.2 z m 3.42,136.687 c 0,-3.359 -1.2,-6.23 -3.62,-8.609 -2.43,-2.41 -5.42,-3.602 -8.88,-3.602 -3.54,0 -6.48,1.192 -8.9,3.602 -2.41,2.379 -3.65,5.25 -3.65,8.609 0,3.512 1.24,6.442 3.65,8.993 2.42,2.429 5.36,3.66 8.9,3.66 3.46,0 6.45,-1.231 8.88,-3.66 2.42,-2.551 3.62,-5.481 3.62,-8.993"
         style="fill:#211d1d;fill-opacity:1;fill-rule:nonzero;stroke:none"
         id="path244" /><path
         d="m 3195.07,229.238 c 9.58,0 17.04,3.254 22.42,9.801 5.5,6.691 8.27,14.762 8.27,24.242 0,9.36 -2.77,17.321 -8.27,23.879 -5.38,6.512 -12.84,9.809 -22.42,9.809 -9.01,0 -16.28,-3.328 -21.8,-10.008 -5.4,-6.563 -8.09,-14.469 -8.09,-23.68 0,-9.48 2.69,-17.531 8.09,-24.043 5.52,-6.687 12.79,-10 21.8,-10 z m 47.87,-11.066 c 0,-17.652 -3.37,-31.32 -10.09,-41.121 -6.77,-9.59 -18.75,-14.43 -35.97,-14.43 -13.32,0 -24.22,3.801 -32.71,11.449 -8.35,7.649 -12.67,17.969 -12.92,31.102 h 18.15 c 0,-8.453 2.64,-14.953 7.79,-19.602 5.19,-4.609 12.04,-6.91 20.52,-6.91 10.37,0 17.46,3.059 21.3,9.059 3.85,6.051 5.73,14.472 5.73,25.441 v 17.871 h -0.39 c -3.77,-5.652 -8.45,-9.972 -14.02,-13.133 -5.61,-3.16 -11.61,-4.738 -18.08,-4.738 -14.03,0 -25.07,4.86 -33.14,14.629 -8.08,9.801 -12.1,21.781 -12.1,36.109 0,13.493 4.09,24.973 12.3,34.481 8.24,9.742 18.91,14.621 32.15,14.621 13.86,0 24.82,-6.301 32.89,-18.809 h 0.39 v 16.059 h 18.2 v -92.078"
         style="fill:#211d1d;fill-opacity:1;fill-rule:nonzero;stroke:none"
         id="path246" /><path
         d="m 3284.76,297.57 h 0.37 c 2.68,4.981 6.59,8.782 11.74,11.45 5.1,2.699 10.67,3.98 16.74,3.98 6.18,0 11.41,-0.918 15.77,-2.75 4.28,-1.91 7.76,-4.578 10.37,-8.07 2.63,-3.461 4.55,-7.711 5.67,-12.719 1.15,-5.02 1.72,-10.742 1.72,-17.141 v -55.898 h -18.17 v 53.707 c 0,9.23 -1.37,16 -4.05,20.242 -2.7,4.418 -8.27,6.598 -16.76,6.598 -3.11,0 -5.74,-0.258 -7.87,-0.891 -2.16,-0.598 -4.05,-1.437 -5.65,-2.609 -1.62,-1.16 -2.97,-2.469 -4.07,-3.879 -1.03,-1.488 -2.06,-3.078 -3,-4.879 -0.39,-0.902 -0.77,-2.141 -1.14,-3.57 -0.34,-1.481 -0.62,-2.969 -0.87,-4.512 -0.29,-1.57 -0.53,-3.098 -0.62,-4.649 -0.13,-1.511 -0.18,-2.781 -0.18,-3.648 V 259.5 216.422 h -18.2 v 93.828 h 18.2 v -12.68"
         style="fill:#211d1d;fill-opacity:1;fill-rule:nonzero;stroke:none"
         id="path248" /><path
         d="m 3476.19,229.238 c 9.56,0 17,3.254 22.39,9.801 5.53,6.691 8.29,14.762 8.29,24.242 0,9.36 -2.76,17.321 -8.29,23.879 -5.39,6.512 -12.83,9.809 -22.39,9.809 -9.02,0 -16.32,-3.328 -21.84,-10.008 -5.37,-6.563 -8.09,-14.469 -8.09,-23.68 0,-9.48 2.72,-17.531 8.09,-24.043 5.52,-6.687 12.82,-10 21.84,-10 z m -47.06,161.203 h 18.15 V 294.59 h 0.41 c 8.36,12.281 19.34,18.41 32.94,18.41 13.17,0 23.87,-4.879 32.11,-14.621 8.2,-9.508 12.31,-20.988 12.31,-34.481 0,-14.328 -4.04,-26.308 -12.1,-36.109 -8.09,-9.769 -19.15,-14.629 -33.15,-14.629 -6.44,0 -12.5,1.578 -18.07,4.738 -5.58,3.161 -10.25,7.481 -14.04,13.133 h -0.41 v -14.609 h -18.15 v 174.019"
         style="fill:#211d1d;fill-opacity:1;fill-rule:nonzero;stroke:none"
         id="path250" /><path
         d="m 3527.67,310.25 h 21.2 l 31.91,-59.559 29.65,59.559 h 20.43 l -76.54,-147.629 h -20.59 l 37.18,69.789 -43.24,77.84"
         style="fill:#211d1d;fill-opacity:1;fill-rule:nonzero;stroke:none"
         id="path252" /><path
         d="m 3757.49,332.68 -27.07,-61.149 h 54.13 z m -34.94,-78.379 -17.36,-37.879 h -20.39 l 72.69,157.527 72.72,-157.527 h -20.4 l -17.39,37.879 h -69.87"
         style="fill:#211d1d;fill-opacity:1;fill-rule:nonzero;stroke:none"
         id="path254" /><path
         d="m 3859.85,216.422 h -18.15 v 174.019 h 18.15 V 216.422"
         style="fill:#211d1d;fill-opacity:1;fill-rule:nonzero;stroke:none"
         id="path256" /><path
         d="m 3904.69,216.422 h -18.16 v 174.019 h 18.16 V 216.422"
         style="fill:#211d1d;fill-opacity:1;fill-rule:nonzero;stroke:none"
         id="path258" /><path
         d="m 3973.77,288.16 v -15.051 h -44.19 v 15.051 h 44.19"
         style="fill:#211d1d;fill-opacity:1;fill-rule:nonzero;stroke:none"
         id="path260" /><path
         d="m 4044.45,372.191 c -5.64,2.5 -9.71,3.789 -12.09,3.789 -3.91,0 -6.77,-1.199 -8.48,-3.71 -1.8,-2.461 -2.96,-5.532 -3.68,-9.11 -0.36,-2.672 -0.62,-4.781 -0.69,-6.379 -0.08,-1.492 -0.11,-3.621 -0.11,-6.293 V 310.25 h 25.05 v -16.879 h -25.05 v -76.949 h -18.14 v 76.949 h -8.29 v 16.879 h 8.29 v 45.668 c 0,24.613 10.14,36.891 30.48,36.891 4.44,0 8.67,-0.797 12.71,-2.368 v -18.25"
         style="fill:#211d1d;fill-opacity:1;fill-rule:nonzero;stroke:none"
         id="path262" /><path
         d="m 4072.51,294.992 h 0.57 c 2.34,5.578 5.69,10.047 10.14,13.199 4.45,3.219 9.7,4.809 15.74,4.809 5,0 9.99,-1.512 14.98,-4.609 l -8.29,-16.442 c -2.94,2.59 -6.69,3.801 -11.14,3.801 -9.26,0 -15.45,-3.738 -18.56,-11.211 -1.33,-3.48 -2.28,-6.949 -2.75,-10.32 -0.44,-3.367 -0.69,-7.297 -0.69,-11.719 v -46.078 h -18.14 v 93.828 h 18.14 v -15.258"
         style="fill:#211d1d;fill-opacity:1;fill-rule:nonzero;stroke:none"
         id="path264" /><path
         d="m 4188.87,273.871 c -1.11,7.27 -3.88,13.008 -8.45,17.168 -4.49,4.223 -10.36,6.383 -17.63,6.383 -3.47,0 -6.77,-0.621 -9.76,-1.762 -3.03,-1.121 -5.74,-2.75 -8.09,-4.879 -2.37,-2.16 -4.31,-4.652 -5.85,-7.551 -1.55,-2.871 -2.62,-5.992 -3.16,-9.359 z m -53.95,-13.601 c 0.27,-8.379 2.92,-15.7 8.08,-21.891 5.28,-6.098 12.05,-9.141 20.38,-9.141 6.63,0 12.05,1.461 16.28,4.492 4.25,2.989 8.24,7.571 12.04,13.762 l 15.32,-8.691 c -4.44,-7.969 -10.52,-14.262 -18.28,-18.809 -7.71,-4.562 -16.25,-6.832 -25.52,-6.832 -14.16,0 -25.45,4.672 -33.92,14.031 -8.38,9.528 -12.56,21.289 -12.56,35.309 0,14.809 3.99,26.988 11.96,36.469 7.77,9.371 19.16,14.031 34.09,14.031 14.56,0 25.54,-4.66 32.95,-14.031 7.53,-9.34 11.28,-21.297 11.28,-35.899 v -2.8 h -72.1"
         style="fill:#211d1d;fill-opacity:1;fill-rule:nonzero;stroke:none"
         id="path266" /><path
         d="m 4287.43,273.871 c -1.09,7.27 -3.89,13.008 -8.41,17.168 -4.53,4.223 -10.43,6.383 -17.62,6.383 -3.55,0 -6.84,-0.621 -9.83,-1.762 -3.03,-1.121 -5.73,-2.75 -8.08,-4.879 -2.36,-2.16 -4.35,-4.652 -5.87,-7.551 -1.57,-2.871 -2.63,-5.992 -3.14,-9.359 z m -53.95,-13.601 c 0.26,-8.379 3.01,-15.7 8.09,-21.891 5.23,-6.098 12.04,-9.141 20.38,-9.141 6.59,0 12.01,1.461 16.24,4.492 4.25,2.989 8.28,7.571 12.04,13.762 l 15.36,-8.691 c -4.49,-7.969 -10.55,-14.262 -18.3,-18.809 -7.72,-4.562 -16.28,-6.832 -25.55,-6.832 -14.12,0 -25.39,4.672 -33.93,14.031 -8.34,9.528 -12.48,21.289 -12.48,35.309 0,14.809 3.95,26.988 11.88,36.469 7.78,9.371 19.21,14.031 34.19,14.031 14.5,0 25.48,-4.66 32.85,-14.031 7.57,-9.34 11.34,-21.297 11.34,-35.899 v -2.8 h -72.11"
         style="fill:#211d1d;fill-opacity:1;fill-rule:nonzero;stroke:none"
         id="path268" /><path
         d="m 4364.36,288.16 v -15.051 h -44.2 v 15.051 h 44.2"
         style="fill:#211d1d;fill-opacity:1;fill-rule:nonzero;stroke:none"
         id="path270" /><path
         d="m 4428.96,229.238 c 9.58,0 17.06,3.254 22.42,9.801 5.5,6.691 8.28,14.762 8.28,24.242 0,9.36 -2.78,17.321 -8.28,23.879 -5.36,6.512 -12.84,9.809 -22.42,9.809 -9.02,0 -16.27,-3.328 -21.81,-10.008 -5.41,-6.563 -8.08,-14.469 -8.08,-23.68 0,-9.48 2.67,-17.531 8.08,-24.043 5.54,-6.687 12.79,-10 21.81,-10 z m 29.71,1.793 h -0.4 c -3.82,-5.652 -8.44,-9.972 -14.05,-13.133 -5.6,-3.16 -11.62,-4.738 -18.08,-4.738 -14.04,0 -25.04,4.86 -33.13,14.629 -8.05,9.801 -12.08,21.781 -12.08,36.109 0,13.493 4.08,24.973 12.32,34.481 8.19,9.742 18.85,14.621 32.07,14.621 13.6,0 24.56,-6.129 32.95,-18.41 h 0.4 v 95.851 h 18.17 V 216.422 h -18.17 v 14.609"
         style="fill:#211d1d;fill-opacity:1;fill-rule:nonzero;stroke:none"
         id="path272" /><path
         d="m 4510.13,263.07 c 0,-8.648 3.2,-16.34 9.49,-23.05 6.22,-6.45 13.86,-9.598 22.83,-9.598 8.88,0 16.53,3.148 22.84,9.598 6.33,6.71 9.5,14.402 9.5,23.05 0,8.86 -3.17,16.532 -9.5,23.059 -6.31,6.422 -13.96,9.621 -22.84,9.621 -8.97,0 -16.61,-3.199 -22.83,-9.621 -6.29,-6.527 -9.49,-14.199 -9.49,-23.059 z m -3.65,35.571 c 9.86,9.55 21.87,14.359 35.97,14.359 14.13,0 26.09,-4.809 35.74,-14.359 9.82,-9.661 14.74,-21.532 14.74,-35.571 0,-14.011 -4.92,-25.84 -14.74,-35.492 -9.65,-9.617 -21.61,-14.418 -35.74,-14.418 -14.1,0 -26.11,4.801 -35.97,14.418 -9.65,9.652 -14.47,21.481 -14.47,35.492 0,14.039 4.82,25.91 14.47,35.571"
         style="fill:#211d1d;fill-opacity:1;fill-rule:nonzero;stroke:none"
         id="path274" /><path
         d="m 4641.83,250.449 27.82,64.949 27.69,-64.949 27.47,59.801 h 20.59 l -48.06,-97.09 -27.69,62.738 -27.82,-62.738 -48.06,97.09 h 20.61 l 27.45,-59.801"
         style="fill:#211d1d;fill-opacity:1;fill-rule:nonzero;stroke:none"
         id="path276" /><path
         d="m 4772.7,297.57 h 0.36 c 2.73,4.981 6.62,8.782 11.76,11.45 5.11,2.699 10.69,3.98 16.75,3.98 6.18,0 11.44,-0.918 15.73,-2.75 4.31,-1.91 7.78,-4.578 10.4,-8.07 2.64,-3.461 4.51,-7.711 5.68,-12.719 1.15,-5.02 1.68,-10.742 1.68,-17.141 v -55.898 h -18.14 v 53.707 c 0,9.23 -1.34,16 -4.05,20.242 -2.71,4.418 -8.3,6.598 -16.8,6.598 -3.03,0 -5.65,-0.258 -7.86,-0.891 -2.12,-0.598 -4.02,-1.437 -5.61,-2.609 -1.62,-1.16 -2.99,-2.469 -4.07,-3.879 -1.1,-1.488 -2.09,-3.078 -3.04,-4.879 -0.36,-0.902 -0.77,-2.141 -1.09,-3.57 -0.32,-1.481 -0.61,-2.969 -0.94,-4.512 -0.23,-1.57 -0.41,-3.098 -0.6,-4.649 -0.1,-1.511 -0.16,-2.781 -0.16,-3.648 V 259.5 216.422 h -18.22 v 93.828 h 18.22 v -12.68"
         style="fill:#211d1d;fill-opacity:1;fill-rule:nonzero;stroke:none"
         id="path278" /><path
         d="m 4879.1,216.422 h -18.15 v 174.019 h 18.15 V 216.422"
         style="fill:#211d1d;fill-opacity:1;fill-rule:nonzero;stroke:none"
         id="path280" /><path
         d="m 4914.67,263.07 c 0,-8.648 3.17,-16.34 9.47,-23.05 6.17,-6.45 13.82,-9.598 22.84,-9.598 8.89,0 16.49,3.148 22.8,9.598 6.32,6.71 9.49,14.402 9.49,23.05 0,8.86 -3.17,16.532 -9.49,23.059 -6.31,6.422 -13.91,9.621 -22.8,9.621 -9.02,0 -16.67,-3.199 -22.84,-9.621 -6.3,-6.527 -9.47,-14.199 -9.47,-23.059 z m -3.65,35.571 c 9.85,9.55 21.81,14.359 35.96,14.359 14.1,0 26.02,-4.809 35.73,-14.359 9.87,-9.661 14.75,-21.532 14.75,-35.571 0,-14.011 -4.88,-25.84 -14.75,-35.492 -9.71,-9.617 -21.63,-14.418 -35.73,-14.418 -14.15,0 -26.11,4.801 -35.96,14.418 -9.74,9.652 -14.56,21.481 -14.56,35.492 0,14.039 4.82,25.91 14.56,35.571"
         style="fill:#211d1d;fill-opacity:1;fill-rule:nonzero;stroke:none"
         id="path282" /><path
         d="m 5054.8,229.238 c 9.57,0 17.04,3.254 22.43,9.801 5.51,6.691 8.24,14.762 8.24,24.242 0,9.36 -2.73,17.321 -8.24,23.879 -5.39,6.512 -12.86,9.809 -22.43,9.809 -9.01,0 -16.29,-3.328 -21.8,-10.008 -5.39,-6.563 -8.09,-14.469 -8.09,-23.68 0,-9.48 2.7,-17.531 8.09,-24.043 5.51,-6.687 12.79,-10 21.8,-10 z m 47.86,-12.816 h -18.18 v 14.609 h -0.4 c -8.04,-11.922 -18.8,-17.871 -32.14,-17.871 -13.82,0 -24.87,4.86 -33.14,14.629 -8,9.801 -12.01,21.781 -12.01,36.109 0,13.493 4.03,24.973 12.29,34.481 8.22,9.742 18.97,14.621 32.28,14.621 13.45,0 24.38,-6.129 32.72,-18.41 h 0.4 v 15.66 h 18.18 v -93.828"
         style="fill:#211d1d;fill-opacity:1;fill-rule:nonzero;stroke:none"
         id="path284" /><path
         d="m 5167.07,229.238 c 9.58,0 17.03,3.254 22.42,9.801 5.51,6.691 8.26,14.762 8.26,24.242 0,9.36 -2.75,17.321 -8.26,23.879 -5.39,6.512 -12.84,9.809 -22.42,9.809 -9,0 -16.28,-3.328 -21.83,-10.008 -5.36,-6.563 -8.08,-14.469 -8.08,-23.68 0,-9.48 2.72,-17.531 8.08,-24.043 5.55,-6.687 12.83,-10 21.83,-10 z m 29.69,1.793 h -0.43 c -3.73,-5.652 -8.44,-9.972 -14,-13.133 -5.55,-3.16 -11.61,-4.738 -18.1,-4.738 -14.01,0 -25,4.86 -33.06,14.629 -8.1,9.801 -12.11,21.781 -12.11,36.109 0,13.493 4.07,24.973 12.29,34.481 8.21,9.742 18.87,14.621 32.09,14.621 13.6,0 24.55,-6.129 32.89,-18.41 h 0.43 v 95.851 h 18.21 V 216.422 h -18.21 v 14.609"
         style="fill:#211d1d;fill-opacity:1;fill-rule:nonzero;stroke:none"
         id="path286" /><path
         d="m 5267.02,224.789 c 0,-3.187 -1.1,-6 -3.4,-8.207 -2.32,-2.254 -5.04,-3.422 -8.3,-3.422 -3.22,0 -6,1.168 -8.28,3.422 -2.27,2.207 -3.46,5.02 -3.46,8.207 0,3.121 1.19,5.832 3.46,8.141 2.28,2.34 5.06,3.492 8.28,3.492 3.26,0 5.98,-1.152 8.3,-3.492 2.3,-2.309 3.4,-5.02 3.4,-8.141"
         style="fill:#211d1d;fill-opacity:1;fill-rule:nonzero;stroke:none"
         id="path288" /><path
         d="m 5366.45,283.52 c -7.62,8.429 -16.61,12.671 -27.12,12.671 -8.72,0 -16.21,-3.281 -22.4,-9.863 -6.07,-6.668 -9.07,-14.398 -9.07,-23.047 0,-9.75 3,-17.711 9.07,-23.82 6.3,-6.313 14.2,-9.449 23.62,-9.449 9.7,0 18.28,4.168 25.9,12.429 v -23.019 c -7.88,-4.172 -16.54,-6.262 -26.08,-6.262 -14.01,0 -26.02,4.738 -35.99,14.27 -9.79,9.3 -14.72,21.05 -14.72,35.07 0,14.469 4.93,26.48 14.72,36.141 9.82,9.55 22.18,14.359 36.96,14.359 9.72,0 18.05,-2.039 25.11,-6.199 V 283.52"
         style="fill:#211d1d;fill-opacity:1;fill-rule:nonzero;stroke:none"
         id="path290" /><path
         d="m 5395.68,263.07 c 0,-8.648 3.16,-16.34 9.51,-23.05 6.17,-6.45 13.8,-9.598 22.83,-9.598 8.87,0 16.46,3.148 22.8,9.598 6.34,6.71 9.46,14.402 9.46,23.05 0,8.86 -3.12,16.532 -9.46,23.059 -6.34,6.422 -13.93,9.621 -22.8,9.621 -9.03,0 -16.66,-3.199 -22.83,-9.621 -6.35,-6.527 -9.51,-14.199 -9.51,-23.059 z m -3.66,35.571 c 9.86,9.55 21.84,14.359 36,14.359 14.12,0 26.08,-4.809 35.74,-14.359 9.83,-9.661 14.74,-21.532 14.74,-35.571 0,-14.011 -4.91,-25.84 -14.74,-35.492 -9.66,-9.617 -21.62,-14.418 -35.74,-14.418 -14.16,0 -26.14,4.801 -36,14.418 -9.66,9.652 -14.52,21.481 -14.52,35.492 0,14.039 4.86,25.91 14.52,35.571"
         style="fill:#211d1d;fill-opacity:1;fill-rule:nonzero;stroke:none"
         id="path292" /><path
         d="m 5512.62,298.379 h 0.39 c 2.72,4.262 6.25,7.793 10.78,10.512 4.51,2.8 9.29,4.109 14.23,4.109 11.76,0 20.84,-5.5 27.28,-16.621 2.98,5.082 7.04,9.121 12.26,12.141 5.13,3 10.78,4.48 16.79,4.48 20.91,0 31.33,-13.48 31.33,-40.508 v -56.07 h -18.14 v 53.09 c 0,2.418 -0.12,4.808 -0.33,7.117 -0.16,2.312 -0.55,4.633 -1.11,6.812 -0.52,2.2 -1.34,4.219 -2.44,6.149 -1.06,1.851 -2.55,3.531 -4.44,5 -2.39,1.601 -5.54,2.379 -9.23,2.379 -3.83,0 -7.03,-0.778 -9.72,-2.379 -2.56,-1.469 -4.52,-3.32 -5.97,-5.539 -1.42,-2.172 -2.52,-4.981 -3.3,-8.352 -0.79,-3.308 -1.35,-6.347 -1.56,-8.961 -0.2,-2.687 -0.29,-5.789 -0.29,-9.238 v -46.078 h -18.14 v 49.687 c 0,3.172 -0.11,5.821 -0.25,7.993 -0.13,2.187 -0.51,4.796 -1.24,8.039 -0.63,3.5 -1.51,6.019 -2.58,7.629 -1.11,1.839 -2.78,3.539 -5.06,5.019 -2.29,1.422 -5.07,2.18 -8.27,2.18 -9.3,0 -15.26,-4 -17.94,-12.008 -1.26,-3.781 -2.04,-7.289 -2.46,-10.641 -0.4,-3.359 -0.59,-7.3 -0.59,-11.82 v -46.078 h -18.19 v 93.828 h 18.19 v -11.871"
         style="fill:#211d1d;fill-opacity:1;fill-rule:nonzero;stroke:none"
         id="path294" /><path
         d="m 2369.58,271.738 c 85.77,0 171.46,0 257.22,0 7.78,0 7.78,11.934 0,11.934 -85.76,0 -171.45,0 -257.22,0 -7.77,0 -7.77,-11.934 0,-11.934"
         style="fill:#211d1d;fill-opacity:1;fill-rule:nonzero;stroke:none"
         id="path296" /><path
         d="m 5792.09,271.738 c 85.72,0 171.46,0 257.24,0 7.76,0 7.76,11.934 0,11.934 -85.78,0 -171.52,0 -257.24,0 -7.73,0 -7.73,-11.934 0,-11.934"
         style="fill:#211d1d;fill-opacity:1;fill-rule:nonzero;stroke:none"
         id="path298" /></g></g></svg>
